<mxfile host="Electron" agent="Mozilla/5.0 (Windows NT 10.0; Win64; x64) AppleWebKit/537.36 (KHTML, like Gecko) draw.io/26.2.2 Chrome/134.0.6998.178 Electron/35.1.2 Safari/537.36" version="26.2.2">
  <diagram name="PÃ¡gina-1" id="KjCP6wr8muVbNkb-eJNi">
    <mxGraphModel dx="874" dy="529" grid="1" gridSize="10" guides="1" tooltips="1" connect="1" arrows="1" fold="1" page="1" pageScale="1" pageWidth="827" pageHeight="1169" math="0" shadow="0">
      <root>
        <mxCell id="0" />
        <mxCell id="1" parent="0" />
        <mxCell id="7MLvX1fJ2hsvu03gbKgJ-1" value="Character" style="swimlane;fontStyle=1;align=center;verticalAlign=top;childLayout=stackLayout;horizontal=1;startSize=26;horizontalStack=0;resizeParent=1;resizeParentMax=0;resizeLast=0;collapsible=1;marginBottom=0;whiteSpace=wrap;html=1;" parent="1" vertex="1">
          <mxGeometry x="350" y="300" width="160" height="274" as="geometry" />
        </mxCell>
        <mxCell id="7MLvX1fJ2hsvu03gbKgJ-2" value="&lt;div&gt;&lt;font style=&quot;color: rgb(0, 0, 0);&quot; face=&quot;Fira Code, Fira Mono, Menlo, Consolas, DejaVu Sans Mono, monospace&quot;&gt;&lt;span style=&quot;font-size: 14px; letter-spacing: -0.4px; white-space: pre;&quot;&gt;-int id_character&lt;/span&gt;&lt;/font&gt;&lt;/div&gt;&lt;div&gt;&lt;font style=&quot;color: rgb(0, 0, 0);&quot; face=&quot;Fira Code, Fira Mono, Menlo, Consolas, DejaVu Sans Mono, monospace&quot;&gt;&lt;span style=&quot;font-size: 14px; letter-spacing: -0.4px; white-space: pre;&quot;&gt;-varchar name&lt;/span&gt;&lt;/font&gt;&lt;/div&gt;&lt;div&gt;&lt;font style=&quot;color: rgb(0, 0, 0);&quot; face=&quot;Fira Code, Fira Mono, Menlo, Consolas, DejaVu Sans Mono, monospace&quot;&gt;&lt;span style=&quot;font-size: 14px; letter-spacing: -0.4px; white-space: pre;&quot;&gt;-&lt;/span&gt;&lt;span style=&quot;font-size: 14px; letter-spacing: -0.4px; white-space: pre;&quot;&gt;varchar &lt;/span&gt;&lt;span style=&quot;font-size: 14px; letter-spacing: -0.4px; white-space: pre;&quot;&gt;status&lt;/span&gt;&lt;/font&gt;&lt;/div&gt;&lt;div&gt;&lt;font style=&quot;color: rgb(0, 0, 0);&quot; face=&quot;Fira Code, Fira Mono, Menlo, Consolas, DejaVu Sans Mono, monospace&quot;&gt;&lt;span style=&quot;font-size: 14px; letter-spacing: -0.4px; white-space: pre;&quot;&gt;-&lt;/span&gt;&lt;span style=&quot;font-size: 14px; letter-spacing: -0.4px; white-space: pre;&quot;&gt;varchar &lt;/span&gt;&lt;span style=&quot;font-size: 14px; letter-spacing: -0.4px; white-space: pre;&quot;&gt;species&lt;/span&gt;&lt;/font&gt;&lt;/div&gt;&lt;div&gt;&lt;font style=&quot;color: rgb(0, 0, 0);&quot; face=&quot;Fira Code, Fira Mono, Menlo, Consolas, DejaVu Sans Mono, monospace&quot;&gt;&lt;span style=&quot;font-size: 14px; letter-spacing: -0.4px; white-space: pre;&quot;&gt;-&lt;/span&gt;&lt;span style=&quot;font-size: 14px; letter-spacing: -0.4px; white-space: pre;&quot;&gt;varchar &lt;/span&gt;&lt;span style=&quot;font-size: 14px; letter-spacing: -0.4px; white-space: pre;&quot;&gt;gender&lt;/span&gt;&lt;/font&gt;&lt;/div&gt;&lt;div&gt;&lt;font style=&quot;color: rgb(0, 0, 0);&quot; face=&quot;Fira Code, Fira Mono, Menlo, Consolas, DejaVu Sans Mono, monospace&quot;&gt;&lt;span style=&quot;font-size: 14px; letter-spacing: -0.4px; white-space: pre;&quot;&gt;-&lt;/span&gt;&lt;span style=&quot;font-size: 14px; letter-spacing: -0.4px; white-space: pre;&quot;&gt;varchar &lt;/span&gt;&lt;span style=&quot;font-size: 14px; letter-spacing: -0.4px; white-space: pre;&quot;&gt;origin&lt;/span&gt;&lt;/font&gt;&lt;/div&gt;&lt;div&gt;&lt;font style=&quot;color: rgb(0, 0, 0);&quot; face=&quot;Fira Code, Fira Mono, Menlo, Consolas, DejaVu Sans Mono, monospace&quot;&gt;&lt;span style=&quot;font-size: 14px; letter-spacing: -0.4px; white-space: pre;&quot;&gt;-&lt;/span&gt;&lt;span style=&quot;font-size: 14px; letter-spacing: -0.4px; white-space: pre;&quot;&gt;varchar &lt;/span&gt;&lt;span style=&quot;font-size: 14px; letter-spacing: -0.4px; white-space: pre;&quot;&gt;location&lt;/span&gt;&lt;/font&gt;&lt;/div&gt;&lt;div&gt;&lt;font style=&quot;color: rgb(0, 0, 0);&quot; face=&quot;Fira Code, Fira Mono, Menlo, Consolas, DejaVu Sans Mono, monospace&quot;&gt;&lt;span style=&quot;font-size: 14px; letter-spacing: -0.4px; white-space: pre;&quot;&gt;-&lt;/span&gt;&lt;span style=&quot;font-size: 14px; letter-spacing: -0.4px; white-space: pre;&quot;&gt;varchar &lt;/span&gt;&lt;span style=&quot;font-size: 14px; letter-spacing: -0.4px; white-space: pre;&quot;&gt;image&lt;/span&gt;&lt;/font&gt;&lt;/div&gt;&lt;div&gt;&lt;font style=&quot;color: rgb(0, 0, 0);&quot; face=&quot;Fira Code, Fira Mono, Menlo, Consolas, DejaVu Sans Mono, monospace&quot;&gt;&lt;span style=&quot;font-size: 14px; letter-spacing: -0.4px; white-space: pre;&quot;&gt;-&lt;/span&gt;&lt;span style=&quot;font-size: 14px; letter-spacing: -0.4px; white-space: pre;&quot;&gt;varchar &lt;/span&gt;&lt;span style=&quot;font-size: 14px; letter-spacing: -0.4px; white-space: pre;&quot;&gt;episode&lt;/span&gt;&lt;/font&gt;&lt;/div&gt;" style="text;strokeColor=none;fillColor=none;align=left;verticalAlign=top;spacingLeft=4;spacingRight=4;overflow=hidden;rotatable=0;points=[[0,0.5],[1,0.5]];portConstraint=eastwest;whiteSpace=wrap;html=1;" parent="7MLvX1fJ2hsvu03gbKgJ-1" vertex="1">
          <mxGeometry y="26" width="160" height="214" as="geometry" />
        </mxCell>
        <mxCell id="7MLvX1fJ2hsvu03gbKgJ-3" value="" style="line;strokeWidth=1;fillColor=none;align=left;verticalAlign=middle;spacingTop=-1;spacingLeft=3;spacingRight=3;rotatable=0;labelPosition=right;points=[];portConstraint=eastwest;strokeColor=inherit;" parent="7MLvX1fJ2hsvu03gbKgJ-1" vertex="1">
          <mxGeometry y="240" width="160" height="8" as="geometry" />
        </mxCell>
        <mxCell id="7MLvX1fJ2hsvu03gbKgJ-4" value="-getID()" style="text;strokeColor=none;fillColor=none;align=left;verticalAlign=top;spacingLeft=4;spacingRight=4;overflow=hidden;rotatable=0;points=[[0,0.5],[1,0.5]];portConstraint=eastwest;whiteSpace=wrap;html=1;" parent="7MLvX1fJ2hsvu03gbKgJ-1" vertex="1">
          <mxGeometry y="248" width="160" height="26" as="geometry" />
        </mxCell>
        <mxCell id="7MLvX1fJ2hsvu03gbKgJ-5" value="Location" style="swimlane;fontStyle=1;align=center;verticalAlign=top;childLayout=stackLayout;horizontal=1;startSize=26;horizontalStack=0;resizeParent=1;resizeParentMax=0;resizeLast=0;collapsible=1;marginBottom=0;whiteSpace=wrap;html=1;" parent="1" vertex="1">
          <mxGeometry x="110" y="630" width="180" height="204" as="geometry" />
        </mxCell>
        <mxCell id="7MLvX1fJ2hsvu03gbKgJ-6" value="&amp;nbsp;-&lt;font face=&quot;Fira Code, Fira Mono, Menlo, Consolas, DejaVu Sans Mono, monospace&quot;&gt;&lt;span style=&quot;font-size: 14px; letter-spacing: -0.4px; white-space: pre;&quot;&gt;int id_location&lt;br&gt;-&lt;/span&gt;&lt;/font&gt;&lt;span style=&quot;font-family: &amp;quot;Fira Code&amp;quot;, &amp;quot;Fira Mono&amp;quot;, Menlo, Consolas, &amp;quot;DejaVu Sans Mono&amp;quot;, monospace; font-size: 14px; letter-spacing: -0.4px; white-space: pre;&quot;&gt;varchar &lt;/span&gt;&lt;font face=&quot;Fira Code, Fira Mono, Menlo, Consolas, DejaVu Sans Mono, monospace&quot;&gt;&lt;span style=&quot;font-size: 14px; letter-spacing: -0.4px; white-space: pre;&quot;&gt;name&lt;br&gt;-&lt;/span&gt;&lt;/font&gt;&lt;span style=&quot;font-family: &amp;quot;Fira Code&amp;quot;, &amp;quot;Fira Mono&amp;quot;, Menlo, Consolas, &amp;quot;DejaVu Sans Mono&amp;quot;, monospace; font-size: 14px; letter-spacing: -0.4px; white-space: pre;&quot;&gt;varchar &lt;/span&gt;&lt;font face=&quot;Fira Code, Fira Mono, Menlo, Consolas, DejaVu Sans Mono, monospace&quot;&gt;&lt;span style=&quot;font-size: 14px; letter-spacing: -0.4px; white-space: pre;&quot;&gt;type&lt;br&gt;-&lt;/span&gt;&lt;/font&gt;&lt;span style=&quot;font-family: &amp;quot;Fira Code&amp;quot;, &amp;quot;Fira Mono&amp;quot;, Menlo, Consolas, &amp;quot;DejaVu Sans Mono&amp;quot;, monospace; font-size: 14px; letter-spacing: -0.4px; white-space: pre;&quot;&gt;varchar &lt;/span&gt;&lt;font face=&quot;Fira Code, Fira Mono, Menlo, Consolas, DejaVu Sans Mono, monospace&quot;&gt;&lt;span style=&quot;font-size: 14px; letter-spacing: -0.4px; white-space: pre;&quot;&gt;dimension&lt;br&gt;-int residents&lt;/span&gt;&lt;/font&gt;&lt;div&gt;&lt;font face=&quot;Fira Code, Fira Mono, Menlo, Consolas, DejaVu Sans Mono, monospace&quot;&gt;&lt;span style=&quot;font-size: 14px; letter-spacing: -0.4px; white-space: pre;&quot;&gt;-id_character&lt;br&gt;&lt;br&gt;&lt;/span&gt;&lt;/font&gt;&lt;/div&gt;" style="text;strokeColor=none;fillColor=none;align=left;verticalAlign=top;spacingLeft=4;spacingRight=4;overflow=hidden;rotatable=0;points=[[0,0.5],[1,0.5]];portConstraint=eastwest;whiteSpace=wrap;html=1;" parent="7MLvX1fJ2hsvu03gbKgJ-5" vertex="1">
          <mxGeometry y="26" width="180" height="144" as="geometry" />
        </mxCell>
        <mxCell id="7MLvX1fJ2hsvu03gbKgJ-7" value="" style="line;strokeWidth=1;fillColor=none;align=left;verticalAlign=middle;spacingTop=-1;spacingLeft=3;spacingRight=3;rotatable=0;labelPosition=right;points=[];portConstraint=eastwest;strokeColor=inherit;" parent="7MLvX1fJ2hsvu03gbKgJ-5" vertex="1">
          <mxGeometry y="170" width="180" height="8" as="geometry" />
        </mxCell>
        <mxCell id="7MLvX1fJ2hsvu03gbKgJ-8" value="-getID()" style="text;strokeColor=none;fillColor=none;align=left;verticalAlign=top;spacingLeft=4;spacingRight=4;overflow=hidden;rotatable=0;points=[[0,0.5],[1,0.5]];portConstraint=eastwest;whiteSpace=wrap;html=1;" parent="7MLvX1fJ2hsvu03gbKgJ-5" vertex="1">
          <mxGeometry y="178" width="180" height="26" as="geometry" />
        </mxCell>
        <mxCell id="7MLvX1fJ2hsvu03gbKgJ-10" value="Episode" style="swimlane;fontStyle=1;align=center;verticalAlign=top;childLayout=stackLayout;horizontal=1;startSize=26;horizontalStack=0;resizeParent=1;resizeParentMax=0;resizeLast=0;collapsible=1;marginBottom=0;whiteSpace=wrap;html=1;" parent="1" vertex="1">
          <mxGeometry x="540" y="630" width="190" height="214" as="geometry" />
        </mxCell>
        <mxCell id="7MLvX1fJ2hsvu03gbKgJ-11" value="&amp;nbsp;&lt;font face=&quot;Fira Code, Fira Mono, Menlo, Consolas, DejaVu Sans Mono, monospace&quot;&gt;&lt;span style=&quot;font-size: 14px; letter-spacing: -0.4px; white-space: pre;&quot;&gt;+int id_episode&lt;br&gt;+&lt;/span&gt;&lt;/font&gt;&lt;span style=&quot;font-family: &amp;quot;Fira Code&amp;quot;, &amp;quot;Fira Mono&amp;quot;, Menlo, Consolas, &amp;quot;DejaVu Sans Mono&amp;quot;, monospace; font-size: 14px; letter-spacing: -0.4px; white-space: pre;&quot;&gt;varchar &lt;/span&gt;&lt;font face=&quot;Fira Code, Fira Mono, Menlo, Consolas, DejaVu Sans Mono, monospace&quot;&gt;&lt;span style=&quot;font-size: 14px; letter-spacing: -0.4px; white-space: pre;&quot;&gt;name&lt;br&gt;+&lt;/span&gt;&lt;/font&gt;&lt;span style=&quot;font-family: &amp;quot;Fira Code&amp;quot;, &amp;quot;Fira Mono&amp;quot;, Menlo, Consolas, &amp;quot;DejaVu Sans Mono&amp;quot;, monospace; font-size: 14px; letter-spacing: -0.4px; white-space: pre;&quot;&gt;varchar &lt;/span&gt;&lt;font face=&quot;Fira Code, Fira Mono, Menlo, Consolas, DejaVu Sans Mono, monospace&quot;&gt;&lt;span style=&quot;font-size: 14px; letter-spacing: -0.4px; white-space: pre;&quot;&gt;date&lt;br&gt;+&lt;/span&gt;&lt;/font&gt;&lt;span style=&quot;font-family: &amp;quot;Fira Code&amp;quot;, &amp;quot;Fira Mono&amp;quot;, Menlo, Consolas, &amp;quot;DejaVu Sans Mono&amp;quot;, monospace; font-size: 14px; letter-spacing: -0.4px; white-space: pre;&quot;&gt;varchar &lt;/span&gt;&lt;font face=&quot;Fira Code, Fira Mono, Menlo, Consolas, DejaVu Sans Mono, monospace&quot;&gt;&lt;span style=&quot;font-size: 14px; letter-spacing: -0.4px; white-space: pre;&quot;&gt;episode&lt;br&gt;+int characters&lt;/span&gt;&lt;/font&gt;&lt;div&gt;&lt;font face=&quot;Fira Code, Fira Mono, Menlo, Consolas, DejaVu Sans Mono, monospace&quot;&gt;&lt;span style=&quot;font-size: 14px; letter-spacing: -0.4px; white-space: pre;&quot;&gt;-id_character&lt;br&gt;&lt;br&gt;&lt;/span&gt;&lt;/font&gt;&lt;/div&gt;" style="text;strokeColor=none;fillColor=none;align=left;verticalAlign=top;spacingLeft=4;spacingRight=4;overflow=hidden;rotatable=0;points=[[0,0.5],[1,0.5]];portConstraint=eastwest;whiteSpace=wrap;html=1;" parent="7MLvX1fJ2hsvu03gbKgJ-10" vertex="1">
          <mxGeometry y="26" width="190" height="154" as="geometry" />
        </mxCell>
        <mxCell id="7MLvX1fJ2hsvu03gbKgJ-12" value="" style="line;strokeWidth=1;fillColor=none;align=left;verticalAlign=middle;spacingTop=-1;spacingLeft=3;spacingRight=3;rotatable=0;labelPosition=right;points=[];portConstraint=eastwest;strokeColor=inherit;" parent="7MLvX1fJ2hsvu03gbKgJ-10" vertex="1">
          <mxGeometry y="180" width="190" height="8" as="geometry" />
        </mxCell>
        <mxCell id="7MLvX1fJ2hsvu03gbKgJ-13" value="-getID()" style="text;strokeColor=none;fillColor=none;align=left;verticalAlign=top;spacingLeft=4;spacingRight=4;overflow=hidden;rotatable=0;points=[[0,0.5],[1,0.5]];portConstraint=eastwest;whiteSpace=wrap;html=1;" parent="7MLvX1fJ2hsvu03gbKgJ-10" vertex="1">
          <mxGeometry y="188" width="190" height="26" as="geometry" />
        </mxCell>
        <mxCell id="7MLvX1fJ2hsvu03gbKgJ-15" value="" style="endArrow=block;endFill=1;html=1;edgeStyle=orthogonalEdgeStyle;align=left;verticalAlign=top;rounded=0;exitX=0.25;exitY=0;exitDx=0;exitDy=0;entryX=0.027;entryY=0.992;entryDx=0;entryDy=0;entryPerimeter=0;" parent="1" source="7MLvX1fJ2hsvu03gbKgJ-5" target="7MLvX1fJ2hsvu03gbKgJ-2" edge="1">
          <mxGeometry x="-1" relative="1" as="geometry">
            <mxPoint x="320" y="540" as="sourcePoint" />
            <mxPoint x="480" y="540" as="targetPoint" />
          </mxGeometry>
        </mxCell>
        <mxCell id="7MLvX1fJ2hsvu03gbKgJ-16" value="1" style="edgeLabel;resizable=0;html=1;align=left;verticalAlign=bottom;" parent="7MLvX1fJ2hsvu03gbKgJ-15" connectable="0" vertex="1">
          <mxGeometry x="-1" relative="1" as="geometry" />
        </mxCell>
        <mxCell id="7MLvX1fJ2hsvu03gbKgJ-17" value="n" style="text;html=1;align=center;verticalAlign=middle;resizable=0;points=[];autosize=1;strokeColor=none;fillColor=none;" parent="1" vertex="1">
          <mxGeometry x="320" y="510" width="30" height="30" as="geometry" />
        </mxCell>
        <mxCell id="7MLvX1fJ2hsvu03gbKgJ-18" value="" style="endArrow=block;endFill=1;html=1;edgeStyle=orthogonalEdgeStyle;align=left;verticalAlign=top;rounded=0;exitX=0.5;exitY=0;exitDx=0;exitDy=0;entryX=0;entryY=0.5;entryDx=0;entryDy=0;" parent="1" source="7MLvX1fJ2hsvu03gbKgJ-5" target="7MLvX1fJ2hsvu03gbKgJ-4" edge="1">
          <mxGeometry x="-1" relative="1" as="geometry">
            <mxPoint x="300" y="540" as="sourcePoint" />
            <mxPoint x="460" y="540" as="targetPoint" />
          </mxGeometry>
        </mxCell>
        <mxCell id="7MLvX1fJ2hsvu03gbKgJ-19" value="1" style="edgeLabel;resizable=0;html=1;align=left;verticalAlign=bottom;" parent="7MLvX1fJ2hsvu03gbKgJ-18" connectable="0" vertex="1">
          <mxGeometry x="-1" relative="1" as="geometry" />
        </mxCell>
        <mxCell id="7MLvX1fJ2hsvu03gbKgJ-20" value="n" style="text;html=1;align=center;verticalAlign=middle;resizable=0;points=[];autosize=1;strokeColor=none;fillColor=none;" parent="1" vertex="1">
          <mxGeometry x="315" y="538" width="30" height="30" as="geometry" />
        </mxCell>
        <mxCell id="7MLvX1fJ2hsvu03gbKgJ-21" value="" style="endArrow=block;endFill=1;html=1;edgeStyle=orthogonalEdgeStyle;align=left;verticalAlign=top;rounded=0;exitX=0.994;exitY=0.049;exitDx=0;exitDy=0;exitPerimeter=0;" parent="1" source="7MLvX1fJ2hsvu03gbKgJ-5" target="7MLvX1fJ2hsvu03gbKgJ-2" edge="1">
          <mxGeometry x="-1" relative="1" as="geometry">
            <mxPoint x="300" y="540" as="sourcePoint" />
            <mxPoint x="460" y="540" as="targetPoint" />
          </mxGeometry>
        </mxCell>
        <mxCell id="7MLvX1fJ2hsvu03gbKgJ-22" value="1" style="edgeLabel;resizable=0;html=1;align=left;verticalAlign=bottom;" parent="7MLvX1fJ2hsvu03gbKgJ-21" connectable="0" vertex="1">
          <mxGeometry x="-1" relative="1" as="geometry" />
        </mxCell>
        <mxCell id="7MLvX1fJ2hsvu03gbKgJ-23" value="n" style="text;html=1;align=center;verticalAlign=middle;resizable=0;points=[];autosize=1;strokeColor=none;fillColor=none;" parent="1" vertex="1">
          <mxGeometry x="315" y="408" width="30" height="30" as="geometry" />
        </mxCell>
        <mxCell id="7MLvX1fJ2hsvu03gbKgJ-24" value="" style="endArrow=block;endFill=1;html=1;edgeStyle=orthogonalEdgeStyle;align=left;verticalAlign=top;rounded=0;exitX=0.75;exitY=0;exitDx=0;exitDy=0;" parent="1" source="7MLvX1fJ2hsvu03gbKgJ-10" target="7MLvX1fJ2hsvu03gbKgJ-2" edge="1">
          <mxGeometry x="-1" relative="1" as="geometry">
            <mxPoint x="300" y="540" as="sourcePoint" />
            <mxPoint x="460" y="540" as="targetPoint" />
          </mxGeometry>
        </mxCell>
        <mxCell id="7MLvX1fJ2hsvu03gbKgJ-26" value="n" style="text;html=1;align=center;verticalAlign=middle;resizable=0;points=[];autosize=1;strokeColor=none;fillColor=none;" parent="1" vertex="1">
          <mxGeometry x="690" y="600" width="30" height="30" as="geometry" />
        </mxCell>
        <mxCell id="7MLvX1fJ2hsvu03gbKgJ-27" value="n" style="text;html=1;align=center;verticalAlign=middle;resizable=0;points=[];autosize=1;strokeColor=none;fillColor=none;" parent="1" vertex="1">
          <mxGeometry x="515" y="408" width="30" height="30" as="geometry" />
        </mxCell>
        <mxCell id="7MLvX1fJ2hsvu03gbKgJ-29" value="" style="endArrow=block;endFill=1;html=1;edgeStyle=orthogonalEdgeStyle;align=left;verticalAlign=top;rounded=0;exitX=0.25;exitY=0;exitDx=0;exitDy=0;" parent="1" source="7MLvX1fJ2hsvu03gbKgJ-10" target="7MLvX1fJ2hsvu03gbKgJ-4" edge="1">
          <mxGeometry x="-1" relative="1" as="geometry">
            <mxPoint x="300" y="540" as="sourcePoint" />
            <mxPoint x="460" y="540" as="targetPoint" />
          </mxGeometry>
        </mxCell>
        <mxCell id="7MLvX1fJ2hsvu03gbKgJ-30" value="1" style="edgeLabel;resizable=0;html=1;align=left;verticalAlign=bottom;" parent="7MLvX1fJ2hsvu03gbKgJ-29" connectable="0" vertex="1">
          <mxGeometry x="-1" relative="1" as="geometry" />
        </mxCell>
        <mxCell id="7MLvX1fJ2hsvu03gbKgJ-31" value="n" style="text;html=1;align=center;verticalAlign=middle;resizable=0;points=[];autosize=1;strokeColor=none;fillColor=none;" parent="1" vertex="1">
          <mxGeometry x="505" y="538" width="30" height="30" as="geometry" />
        </mxCell>
        <mxCell id="7MLvX1fJ2hsvu03gbKgJ-32" value="origen" style="text;html=1;align=center;verticalAlign=middle;resizable=0;points=[];autosize=1;strokeColor=none;fillColor=none;" parent="1" vertex="1">
          <mxGeometry x="120" y="568" width="60" height="30" as="geometry" />
        </mxCell>
        <mxCell id="7MLvX1fJ2hsvu03gbKgJ-33" value="ubicacion" style="text;html=1;align=center;verticalAlign=middle;resizable=0;points=[];autosize=1;strokeColor=none;fillColor=none;" parent="1" vertex="1">
          <mxGeometry x="180" y="574" width="70" height="30" as="geometry" />
        </mxCell>
        <mxCell id="7MLvX1fJ2hsvu03gbKgJ-36" value="residentes" style="text;html=1;align=center;verticalAlign=middle;resizable=0;points=[];autosize=1;strokeColor=none;fillColor=none;" parent="1" vertex="1">
          <mxGeometry x="260" y="574" width="80" height="30" as="geometry" />
        </mxCell>
        <mxCell id="7MLvX1fJ2hsvu03gbKgJ-37" value="contiene" style="text;html=1;align=center;verticalAlign=middle;resizable=0;points=[];autosize=1;strokeColor=none;fillColor=none;" parent="1" vertex="1">
          <mxGeometry x="560" y="570" width="70" height="30" as="geometry" />
        </mxCell>
        <mxCell id="7MLvX1fJ2hsvu03gbKgJ-40" value="aparece" style="text;html=1;align=center;verticalAlign=middle;resizable=0;points=[];autosize=1;strokeColor=none;fillColor=none;" parent="1" vertex="1">
          <mxGeometry x="650" y="520" width="70" height="30" as="geometry" />
        </mxCell>
      </root>
    </mxGraphModel>
  </diagram>
</mxfile>
